<?xml version="1.0" standalone="no"?>
<!DOCTYPE svg PUBLIC "-//W3C//DTD SVG 20010904//EN"
 "http://www.w3.org/TR/2001/REC-SVG-20010904/DTD/svg10.dtd">
<svg version="1.0" xmlns="http://www.w3.org/2000/svg"
 width="898.000000pt" height="898.000000pt" viewBox="0 0 898.000000 898.000000"
 preserveAspectRatio="xMidYMid meet">

<g transform="translate(0.000000,898.000000) scale(0.100000,-0.100000)"
fill="#000000" stroke="none">
<path d="M5202 6781 c-66 -26 -107 -65 -137 -126 -50 -101 -33 -226 41 -299
16 -16 72 -60 124 -99 157 -116 267 -236 384 -414 124 -189 193 -362 242 -601
35 -174 38 -411 6 -584 -75 -403 -284 -748 -611 -1008 -114 -91 -135 -113
-158 -160 -37 -78 -37 -170 1 -234 32 -56 68 -90 121 -119 54 -29 174 -30 225
-3 76 41 227 163 338 274 520 517 742 1249 597 1968 -80 397 -296 804 -572
1081 -303 303 -454 384 -601 324z"/>
<path d="M4639 6207 c-104 -39 -179 -146 -179 -254 0 -53 37 -136 78 -176 21
-21 64 -55 96 -75 233 -154 369 -355 411 -612 42 -247 -15 -480 -164 -678 -71
-93 -128 -145 -250 -229 -108 -74 -142 -124 -149 -224 -6 -86 12 -139 70 -198
55 -58 107 -81 188 -81 48 0 79 7 118 25 89 42 209 132 321 244 225 225 361
491 401 789 16 116 7 388 -15 492 -56 257 -191 510 -372 696 -111 114 -252
223 -348 268 -51 24 -158 31 -206 13z"/>
<path d="M3980 5514 c-278 -54 -480 -301 -480 -584 1 -250 193 -486 442 -545
284 -67 582 96 679 370 27 76 36 214 19 297 -41 210 -195 381 -400 442 -56 17
-214 29 -260 20z"/>
<path d="M4276 3583 c-6 -14 -5 -15 5 -6 7 7 10 15 7 18 -3 3 -9 -2 -12 -12z"/>
</g>
</svg>
