<?xml version="1.0" encoding="UTF-8"?>
<svg version="1.1" xmlns="http://www.w3.org/2000/svg" width="210" height="250">
<path d="M0 0 C0.85972412 -0.01393799 1.71944824 -0.02787598 2.60522461 -0.04223633 C9.4619765 0.00891859 16.36625847 0.80879031 21.4375 5.75 C24.44267542 10.7986947 25.49358918 14.23023907 24.671875 20.08984375 C23.51819665 24.01369163 21.16991683 26.84327439 18 29.375 C14.21188806 31.19043009 11.1744485 31.62434538 6.9921875 31.6484375 C5.26355469 31.679375 5.26355469 31.679375 3.5 31.7109375 C1.10684035 31.73672586 -1.28641203 31.75510511 -3.6796875 31.765625 C-14.90487566 31.99012876 -24.7050971 34.46209921 -33 42.375 C-40.67876577 50.94380453 -43.14052891 59.42364621 -43.203125 70.82421875 C-43.21167511 72.0432061 -43.21167511 72.0432061 -43.22039795 73.28681946 C-43.22982032 75.00394399 -43.23637092 76.72108638 -43.24023438 78.43823242 C-43.24990371 81.03662574 -43.28093784 83.63421508 -43.3125 86.23242188 C-43.58903854 101.5412241 -43.58903854 101.5412241 -36.8125 114.875 C-34 118.21441606 -34 118.21441606 -34 120.375 C-33.44183594 120.65214844 -32.88367187 120.92929688 -32.30859375 121.21484375 C-30.73199525 122.00714452 -29.16188483 122.81245523 -27.59765625 123.62890625 C-26.76105469 124.06074219 -25.92445312 124.49257812 -25.0625 124.9375 C-24.22847656 125.37191406 -23.39445312 125.80632812 -22.53515625 126.25390625 C-18.03430515 128.24426721 -13.73307039 128.5050859 -8.8515625 128.5859375 C-7.09585938 128.62847656 -7.09585938 128.62847656 -5.3046875 128.671875 C-2.85952533 128.72378927 -0.41418968 128.76811041 2.03125 128.8046875 C15.87925407 129.16990959 15.87925407 129.16990959 21.3125 134.75 C24.37636164 139.516007 25.4840363 142.60227885 24.53515625 148.3828125 C23.35184886 152.78782541 21.14259615 155.54661779 17.5 158.1875 C14.09097752 159.34413263 11.35146868 159.68627697 7.78125 159.94921875 C6.69908203 160.03131592 5.61691406 160.11341309 4.50195312 160.19799805 C3.26348633 160.28561401 3.26348633 160.28561401 2 160.375 C2.00999275 161.36645775 2.00999275 161.36645775 2.02018738 162.37794495 C2.08668366 169.27250289 2.13186009 176.16696935 2.16479492 183.06176758 C2.17985844 185.6330943 2.2003132 188.20439543 2.22631836 190.77563477 C2.26280761 194.47678962 2.27975121 198.177604 2.29296875 201.87890625 C2.30845261 203.02396133 2.32393646 204.16901642 2.33988953 205.34877014 C2.34167964 213.88557706 1.17160309 220.02706539 -5 226.375 C-12.6457484 231.07216382 -22.58366811 230.70604757 -31.203125 228.91796875 C-48.45050796 224.22284783 -60.43768486 212.76692119 -69.421875 197.6953125 C-73.5565001 188.99622504 -74.44396562 181.01399457 -74.41992188 171.45239258 C-74.42839142 170.19730896 -74.43686096 168.94222534 -74.44558716 167.64910889 C-74.46486814 164.23333634 -74.4707419 160.81811233 -74.46883965 157.40232301 C-74.46871913 154.53514502 -74.47731643 151.6680169 -74.48561716 148.80085295 C-74.50479513 142.02564808 -74.50775645 135.25056636 -74.50097656 128.4753418 C-74.494348 121.52471465 -74.5171648 114.5746198 -74.55429029 107.62410051 C-74.58515823 101.62368339 -74.59632874 95.62343594 -74.59245348 89.6229412 C-74.59040259 86.05378536 -74.59560296 82.48504357 -74.62034607 78.91596413 C-74.7724945 55.09245402 -72.47014832 37.83632987 -55.57421875 19.79296875 C-39.8899729 5.06072569 -21.02552694 0.21764015 0 0 Z " fill="#01B7BD" transform="translate(74,20.625)"/>
<path d="M0 0 C9.06653958 3.27171765 16.2720086 11.34666926 23 18 C23.87914062 18.85464844 24.75828125 19.70929687 25.6640625 20.58984375 C48.71160825 44.33247421 56.50547103 74.90263154 56.21484375 107.01171875 C55.62222674 134.49663302 44.01268905 162.0598627 25 182 C24.34 182 23.68 182 23 182 C22.7628125 182.56976563 22.525625 183.13953125 22.28125 183.7265625 C18.08712512 191.16857678 8.7832301 197.71043704 1 201 C-3.79576245 201.99943999 -6.95158249 201.53409949 -11.3125 199.3125 C-16.34211497 194.98469177 -18.37232949 192.00308142 -19.21484375 185.4765625 C-18.7646684 180.28726841 -16.86848359 176.49923331 -13.0390625 173.0859375 C-11.91204863 172.16860063 -10.77372295 171.26500157 -9.625 170.375 C-8.4904108 169.46836479 -7.35757489 168.55953081 -6.2265625 167.6484375 C-5.67991943 167.20927002 -5.13327637 166.77010254 -4.57006836 166.31762695 C-2.23043861 164.35417154 -0.11814935 162.19753484 2 160 C2.57363281 159.42378906 3.14726562 158.84757813 3.73828125 158.25390625 C19.28029793 141.55491563 26.10096535 118.10931871 25.33984375 95.640625 C23.84708001 70.54519468 12.5479395 49.74264555 -6 33 C-7.5882829 31.7298787 -9.19170561 30.47836324 -10.8125 29.25 C-19.52721945 22.57489574 -19.52721945 22.57489574 -20.47265625 17.42578125 C-20.72908354 12.60626318 -20.46542772 8.97351656 -17.6875 4.9375 C-12.32066946 -0.92857059 -7.60668113 -1.00924025 0 0 Z " fill="#02618C" transform="translate(154,0)"/>
<path d="M0 0 C17.90992292 7.35758996 30.28068525 23.69252235 37.78515625 40.92578125 C45.6584835 60.84960295 44.64601105 81.62827174 36.6784668 101.38183594 C29.6639537 117.44726624 16.69370643 131.2333076 1 139 C-4.18440722 140.25260846 -7.60712902 139.67064158 -12.375 137.375 C-15.95907713 134.13226355 -18.59535241 131.53524104 -19.3828125 126.6015625 C-19.64760474 120.72317483 -18.73626885 117.72274247 -15 113 C-12.89665689 111.26623656 -10.84390259 109.68560274 -8.625 108.125 C-3.43696279 104.29011345 0.69982277 100.63601695 4 95 C4.45890625 94.21882813 4.9178125 93.43765625 5.390625 92.6328125 C11.99308359 80.45241475 12.47790365 67.50729103 9.1015625 54.20703125 C5.28763914 43.10337494 -2.70858069 34.76830675 -12.3125 28.375 C-16.28277148 25.66716507 -18.65799849 23.79286254 -20 19 C-20.65534124 14.28494746 -20.49175009 11.00241365 -18.375 6.6875 C-12.97474237 0.57668215 -8.02790536 -1.63279431 0 0 Z " fill="#02618C" transform="translate(123,31)"/>
<path d="M0 0 C7.6852453 5.4399733 12.92323128 13.26072016 14.58984375 22.59375 C15.56121421 31.39679481 13.73853097 39.00790264 8.70703125 46.3359375 C2.25740617 54.12634485 -4.98174095 58.26755255 -15.03515625 59.53125 C-24.45808481 59.9589574 -31.93287277 57.40254874 -39.41015625 51.59375 C-46.73421537 44.03609049 -50.02867492 36.38177611 -49.95874023 25.80078125 C-49.61247766 16.58405522 -45.7547454 9.46578641 -39.16015625 3.09375 C-27.71703168 -6.07603263 -12.82249642 -7.48152141 0 0 Z " fill="#02608B" transform="translate(100.41015625,73.40625)"/>
<path d="M0 0 C17.90992292 7.35758996 30.28068525 23.69252235 37.78515625 40.92578125 C45.6584835 60.84960295 44.64601105 81.62827174 36.6784668 101.38183594 C29.6639537 117.44726624 16.69370643 131.2333076 1 139 C-4.18440722 140.25260846 -7.60712902 139.67064158 -12.375 137.375 C-15.95907713 134.13226355 -18.59535241 131.53524104 -19.3828125 126.6015625 C-19.64760474 120.72317483 -18.73626885 117.72274247 -15 113 C-12.89665689 111.26623656 -10.84390259 109.68560274 -8.625 108.125 C-3.43696279 104.29011345 0.69982277 100.63601695 4 95 C4.45890625 94.21882813 4.9178125 93.43765625 5.390625 92.6328125 C11.99308359 80.45241475 12.47790365 67.50729103 9.1015625 54.20703125 C5.28763914 43.10337494 -2.70858069 34.76830675 -12.3125 28.375 C-16.28277148 25.66716507 -18.65799849 23.79286254 -20 19 C-20.65534124 14.28494746 -20.49175009 11.00241365 -18.375 6.6875 C-12.97474237 0.57668215 -8.02790536 -1.63279431 0 0 Z M-16.8125 7.0625 C-18.53618367 11.32634907 -18.41849303 15.4529123 -18 20 C-17.67 20.66 -17.34 21.32 -17 22 C-16.34 22 -15.68 22 -15 22 C-14.77570313 22.58394531 -14.55140625 23.16789062 -14.3203125 23.76953125 C-12.61812509 26.64512005 -10.65192219 27.8426645 -7.875 29.6875 C2.96240828 37.40826799 9.78933853 46.80416132 12.64453125 59.97265625 C14.35087338 74.50469088 12.30480682 86.76960173 4 99 C-1.02725351 104.92497735 -6.47029632 109.73806536 -13.1875 113.6484375 C-15.36512321 115.2722686 -16.08553272 116.45156073 -17 119 C-17.56811094 123.53750945 -17.53359148 127.68006319 -15.8125 131.9375 C-12.56412003 135.63393237 -9.7074525 137.18264478 -4.8125 137.5625 C5.26886324 137.16191603 13.20978053 128.65620198 20 122 C20.70125 121.33484375 21.4025 120.6696875 22.125 119.984375 C36.52363471 105.24827229 40.35290173 85.74319972 40.45751953 65.96533203 C40.3249639 55.37044717 38.54563299 46.54609842 34 37 C33.55527344 36.05769531 33.11054688 35.11539063 32.65234375 34.14453125 C29.84026973 28.9876958 26.108846 24.5101108 22.375 20 C21.90747314 19.43498779 21.43994629 18.86997559 20.95825195 18.2878418 C18.55044296 15.47994499 16.50194498 13.3152845 13 12 C13 11.34 13 10.68 13 10 C6.75977011 5.12909955 0.29964743 0.76731434 -7.91015625 1.5390625 C-11.97797959 2.43626466 -14.10023732 3.97613212 -16.8125 7.0625 Z " fill="#0F4766" transform="translate(123,31)"/>
<path d="M0 0 C0.87519287 -0.01772461 1.75038574 -0.03544922 2.65209961 -0.05371094 C9.59892701 -0.0458295 16.53926311 0.67126918 21.6875 5.6875 C24.69267542 10.7361947 25.74358918 14.16773907 24.921875 20.02734375 C23.76819665 23.95119163 21.41991683 26.78077439 18.25 29.3125 C14.46188806 31.12793009 11.4244485 31.56184538 7.2421875 31.5859375 C5.51355469 31.616875 5.51355469 31.616875 3.75 31.6484375 C1.35684035 31.67422586 -1.03641203 31.69260511 -3.4296875 31.703125 C-14.65487566 31.92762876 -24.4550971 34.39959921 -32.75 42.3125 C-40.42876577 50.88130453 -42.89052891 59.36114621 -42.953125 70.76171875 C-42.96167511 71.9807061 -42.96167511 71.9807061 -42.97039795 73.22431946 C-42.97982032 74.94144399 -42.98637092 76.65858638 -42.99023438 78.37573242 C-42.99990371 80.97412574 -43.03093784 83.57171508 -43.0625 86.16992188 C-43.12897804 96.44872591 -43.10366562 106.1206637 -37.0625 114.9375 C-36.62550781 115.58976562 -36.18851563 116.24203125 -35.73828125 116.9140625 C-35.41214844 117.37554687 -35.08601563 117.83703125 -34.75 118.3125 C-36.5859375 118.09765625 -36.5859375 118.09765625 -38.75 117.3125 C-40.1640625 115.30859375 -40.1640625 115.30859375 -41.375 112.75 C-41.77976562 111.92371094 -42.18453125 111.09742188 -42.6015625 110.24609375 C-45.08566812 103.90064029 -46.05529254 98.01592809 -46.015625 91.2265625 C-46.01753845 90.48473724 -46.0194519 89.74291199 -46.02142334 88.97860718 C-46.02277456 87.42063047 -46.01915307 85.86264209 -46.01074219 84.3046875 C-46.00005789 81.95025685 -46.01065784 79.59659439 -46.0234375 77.2421875 C-46.03876568 63.19163732 -44.9523444 52.20078196 -35.125 41.4375 C-34.34125 40.73625 -33.5575 40.035 -32.75 39.3125 C-32.17636719 38.67441406 -31.60273437 38.03632812 -31.01171875 37.37890625 C-21.31663764 28.52105149 -7.38610292 28.62195259 4.93188477 28.71411133 C13.41510613 28.77453806 13.41510613 28.77453806 20.25 24.3125 C22.20142694 21.48629547 22.52328533 19.21215751 22.5 15.8125 C22.50515625 15.0596875 22.5103125 14.306875 22.515625 13.53125 C22.00565459 9.27149716 20.84668918 7.78191753 17.4296875 5.09375 C12.08155967 2.2774927 6.27366039 2.718851 0.375 2.8125 C-1.42614258 2.82953979 -1.42614258 2.82953979 -3.26367188 2.84692383 C-23.37829301 3.28331707 -39.50992468 9.14637989 -54.75 22.3125 C-55.08 22.9725 -55.41 23.6325 -55.75 24.3125 C-56.41 24.3125 -57.07 24.3125 -57.75 24.3125 C-58.018125 24.86421875 -58.28625 25.4159375 -58.5625 25.984375 C-59.87796584 28.56338039 -61.28849162 31.06332068 -62.75 33.5625 C-63.265625 34.45453125 -63.78125 35.3465625 -64.3125 36.265625 C-64.786875 36.94109375 -65.26125 37.6165625 -65.75 38.3125 C-66.41 38.3125 -67.07 38.3125 -67.75 38.3125 C-62.46100803 23.60910231 -49.39668409 12.9880754 -35.75 6.3125 C-24.16541211 1.4411884 -12.45568635 0.15254974 0 0 Z " fill="#189297" transform="translate(73.75,20.6875)"/>
<path d="M0 0 C-0.86625 0.61875 -0.86625 0.61875 -1.75 1.25 C-4.64812173 3.50409468 -7.34187165 5.6837433 -9 9 C-9.2357855 11.04068634 -9.2357855 11.04068634 -9.25 13.3125 C-9.27578125 14.07175781 -9.3015625 14.83101562 -9.328125 15.61328125 C-8.74150595 19.88023652 -6.86359545 22.32136357 -3.51953125 24.94921875 C-2.62621094 25.52285156 -1.73289063 26.09648437 -0.8125 26.6875 C0.82389553 27.74331457 2.43818613 28.83669774 4 30 C4 30.66 4 31.32 4 32 C4.53625 32.20625 5.0725 32.4125 5.625 32.625 C8.91978009 34.53250426 11.59363628 37.04819384 14 40 C14 40.66 14 41.32 14 42 C14.66 42 15.32 42 16 42 C17.55548602 44.13804256 18.97957809 46.26046546 20.375 48.5 C20.78129639 49.14493408 21.18759277 49.78986816 21.60620117 50.4543457 C24.34853202 54.85081599 26.98043283 59.21781737 29 64 C29.33515625 64.79148437 29.6703125 65.58296875 30.015625 66.3984375 C38.94481871 89.12123643 38.48246351 113.86851342 28.80859375 136.24609375 C24.79259601 144.94326013 19.20821786 152.74434996 13 160 C12.01 159.67 11.02 159.34 10 159 C10.4125 158.58492187 10.825 158.16984375 11.25 157.7421875 C26.51992811 141.44971956 33.61483964 118.98544108 33.41723633 96.92529297 C32.57587518 72.08788712 22.1748759 51.43757377 4.48828125 34.24609375 C2.13077228 32.11804405 -0.2823297 30.16755859 -2.8125 28.25 C-11.52721945 21.57489574 -11.52721945 21.57489574 -12.47265625 16.42578125 C-12.73196628 11.55208251 -12.44534893 7.94603938 -9.625 3.875 C-6.1990106 0.1227259 -4.90587903 -0.12910208 0 0 Z " fill="#0F4A68" transform="translate(146,1)"/>
<path d="M0 0 C7.6852453 5.4399733 12.92323128 13.26072016 14.58984375 22.59375 C15.56121421 31.39679481 13.73853097 39.00790264 8.70703125 46.3359375 C2.74017908 53.54321056 -4.27041267 57.97418836 -13.59765625 59.40625 C-14.52578125 59.468125 -15.45390625 59.53 -16.41015625 59.59375 C-16.74015625 58.93375 -17.07015625 58.27375 -17.41015625 57.59375 C-16.62511719 57.43519531 -15.84007812 57.27664062 -15.03125 57.11328125 C-8.28268496 55.61452018 -3.78380135 53.91602975 1.58984375 49.59375 C2.24984375 49.59375 2.90984375 49.59375 3.58984375 49.59375 C3.86570313 49.02011719 4.1415625 48.44648437 4.42578125 47.85546875 C5.58984375 45.59375 5.58984375 45.59375 6.87890625 43.61328125 C11.71286879 35.62734898 11.54819746 27.62197939 10.58984375 18.59375 C9.74497848 15.4219653 8.58319248 13.18138903 6.58984375 10.59375 C6.15414062 9.97242187 5.7184375 9.35109375 5.26953125 8.7109375 C1.00491387 3.14130059 -4.52287188 -0.07888247 -11.41015625 -1.40625 C-22.05801919 -2.13864269 -30.08123913 -1.07447554 -38.515625 5.6796875 C-46.74602106 13.99493301 -47.41015625 23.50121626 -47.41015625 34.59375 C-48.07015625 34.59375 -48.73015625 34.59375 -49.41015625 34.59375 C-50.26780982 22.96777934 -49.28883673 14.41301936 -41.359375 5.21484375 C-29.96687643 -5.77294794 -13.8533704 -8.0830038 0 0 Z " fill="#114968" transform="translate(100.41015625,73.40625)"/>
<path d="M0 0 C17.90992292 7.35758996 30.28068525 23.69252235 37.78515625 40.92578125 C41.48450236 50.28714905 43.19660634 59.2511315 43.1875 69.3125 C43.18814453 70.05363037 43.18878906 70.79476074 43.18945312 71.55834961 C43.13520627 77.21050154 42.50419561 82.53386059 41 88 C40.34 88 39.68 88 39 88 C39.0314209 87.09459473 39.0628418 86.18918945 39.09521484 85.25634766 C40.09426808 60.46283072 40.09426808 60.46283072 33 37 C32.55527344 36.06414062 32.11054688 35.12828125 31.65234375 34.1640625 C27.4043221 26.31203415 20.45119602 16.96746401 13 12 C13 11.34 13 10.68 13 10 C10.96804269 8.91145144 9.20150212 8.04274287 6.9375 7.5625 C4.57651089 6.87705155 3.64002011 5.78911285 2 4 C-2.41235804 1.79382098 -8.42432822 2.58196463 -13.0625 3.8125 C-15.3295913 4.91610733 -15.3295913 4.91610733 -16 8 C-16.66 8 -17.32 8 -18 8 C-15.15849717 0.04379209 -7.46353239 -1.51800659 0 0 Z " fill="#174C68" transform="translate(123,31)"/>
<path d="M0 0 C0.33 0 0.66 0 1 0 C2.74839895 28.16864979 -9.73432315 52.76652604 -27.15234375 74.0859375 C-27.76207031 74.71757812 -28.37179688 75.34921875 -29 76 C-29.66 76 -30.32 76 -31 76 C-31.2371875 76.56976563 -31.474375 77.13953125 -31.71875 77.7265625 C-35.91287488 85.16857678 -45.2167699 91.71043704 -53 95 C-57.79576245 95.99943999 -60.95158249 95.53409949 -65.3125 93.3125 C-69.10579223 90.04850436 -72.24279216 87.1111529 -73 82 C-72.01 82 -71.02 82 -70 82 C-69.62875 82.9075 -69.2575 83.815 -68.875 84.75 C-66.66503758 88.58060153 -64.94193053 90.02903474 -61 92 C-54.08222262 93.00622216 -50.01139809 90.20768035 -44.6875 86.3046875 C-21.70831601 68.56762985 -5.18336703 41.48947089 -1.375 12.46875 C-0.86529943 8.31741249 -0.41909748 4.16139149 0 0 Z " fill="#104A67" transform="translate(208,106)"/>
<path d="M0 0 C11.63980793 1.26473051 24.16616079 15.91291928 31.36376953 24.65673828 C41.91328076 38.09291238 48.89633243 52.76617085 54 69 C54.3815625 70.17691406 54.763125 71.35382813 55.15625 72.56640625 C56.04018679 76.16353791 56.20119353 79.24211362 56.125 82.9375 C56.10695312 84.08089844 56.08890625 85.22429687 56.0703125 86.40234375 C56.04710937 87.25957031 56.02390625 88.11679688 56 89 C55.67 89 55.34 89 55 89 C54.89977539 88.410979 54.79955078 87.82195801 54.69628906 87.21508789 C54.2263407 84.49530171 53.73828689 81.77905131 53.25 79.0625 C53.09273437 78.13630859 52.93546875 77.21011719 52.7734375 76.25585938 C51.76887984 70.75011065 50.32920626 65.98226968 47.91455078 60.93237305 C46.82792889 58.63642743 46.06812261 56.29778994 45.3125 53.875 C37.59439084 32.37240793 21.15440343 15.0944992 2.45703125 2.71484375 C1.64621094 2.14894531 0.83539063 1.58304687 0 1 C0 0.67 0 0.34 0 0 Z " fill="#114C6B" transform="translate(153,1)"/>
<path d="M0 0 C0.89195068 -0.0093457 1.78390137 -0.01869141 2.70288086 -0.02832031 C7.895687 -0.00298242 12.20877949 0.56214228 17.125 2.25 C17.125 3.24 17.125 4.23 17.125 5.25 C16.58254639 4.92692871 16.04009277 4.60385742 15.48120117 4.27099609 C1.56116041 -1.76087734 -20.03775545 3.55803716 -33.890625 8.27734375 C-40.86794348 11.07823874 -52.37737689 17.25475378 -55.875 24.25 C-56.535 24.25 -57.195 24.25 -57.875 24.25 C-58.143125 24.80171875 -58.41125 25.3534375 -58.6875 25.921875 C-60.00296584 28.50088039 -61.41349162 31.00082068 -62.875 33.5 C-63.390625 34.39203125 -63.90625 35.2840625 -64.4375 36.203125 C-64.911875 36.87859375 -65.38625 37.5540625 -65.875 38.25 C-66.535 38.25 -67.195 38.25 -67.875 38.25 C-62.58600803 23.54660231 -49.52168409 12.9255754 -35.875 6.25 C-24.23213216 1.35418172 -12.51610834 0.09108144 0 0 Z " fill="#219B9D" transform="translate(73.875,20.75)"/>
<path d="M0 0 C0.66 0 1.32 0 2 0 C2.3403125 0.68964844 2.680625 1.37929687 3.03125 2.08984375 C7.35829682 10.47925101 11.86770964 18.5538527 21 22 C22.26126339 22.93746078 23.49158437 23.91798841 24.6875 24.9375 C28.55989682 27.96742881 32.26079029 29.26416855 36.99609375 30.45703125 C39 31 39 31 40 32 C41.34747084 32.23075082 42.70377565 32.41153063 44.0625 32.5625 C45.361875 32.706875 46.66125 32.85125 48 33 C48 33.33 48 33.66 48 34 C35.39625163 35.28029047 25.3197057 30.02564691 15.65625 22.3203125 C9.00966898 16.51432849 4.00159867 9.88593437 0 2 C0 1.34 0 0.68 0 0 Z " fill="#199A9C" transform="translate(4,215)"/>
<path d="M0 0 C0.33 0 0.66 0 1 0 C1.64817885 4.32119233 0.87435449 6.63239631 -1.625 10.0625 C-7.53369733 17.29342331 -14.68945993 22.3838889 -24.0625 23.75 C-25.031875 23.8325 -26.00125 23.915 -27 24 C-27.33 23.34 -27.66 22.68 -28 22 C-27.21496094 21.84144531 -26.42992188 21.68289062 -25.62109375 21.51953125 C-18.87252871 20.02077018 -14.3736451 18.32227975 -9 14 C-8.34 14 -7.68 14 -7 14 C-6.58621094 13.17242187 -6.58621094 13.17242187 -6.1640625 12.328125 C-3.08203125 6.1640625 -3.08203125 6.1640625 0 0 Z " fill="#0E4562" transform="translate(111,109)"/>
<path d="M0 0 C0.66 0.33 1.32 0.66 2 1 C0.625 2.5 0.625 2.5 -1 4 C-1.66 4 -2.32 4 -3 4 C-3.2371875 4.58652344 -3.474375 5.17304688 -3.71875 5.77734375 C-5.27197996 8.47181889 -6.99106021 9.74188947 -9.5 11.5625 C-14.0614871 14.88735017 -16.08365712 17.34921891 -17 23 C-17.99 23.33 -18.98 23.66 -20 24 C-19.65402982 18.23383037 -18.17714319 14.88159061 -14 11 C-11.07004962 8.56899044 -8.0497785 6.27768268 -5 4 C-3.33001351 2.67082708 -1.66142513 1.33985898 0 0 Z " fill="#134C6F" transform="translate(155,162)"/>
<path d="M0 0 C0.33 0 0.66 0 1 0 C3.80054712 22.80127986 3.80054712 22.80127986 1 32 C0.34 32 -0.32 32 -1 32 C-0.67 21.44 -0.34 10.88 0 0 Z " fill="#0B4F76" transform="translate(163,87)"/>
<path d="M0 0 C4.47737334 1.98994371 6.36867643 4.47929201 8.33984375 8.8046875 C9.47810364 12.58990678 8.97249704 15.17484498 8 19 C6.44140625 20.73046875 6.44140625 20.73046875 5 22 C5.02320312 21.27554688 5.04640625 20.55109375 5.0703125 19.8046875 C5.44386014 10.87320053 5.44386014 10.87320053 1.375 3.25 C0.92125 2.8375 0.4675 2.425 0 2 C0 1.34 0 0.68 0 0 Z " fill="#199EA6" transform="translate(90,152)"/>
<path d="M0 0 C1.125 3.75 1.125 3.75 0 6 C-0.28125565 9.7322178 -0.44746008 13.46445958 -0.62109375 17.203125 C-0.97746168 20.77415205 -1.72007694 23.66287266 -3 27 C-3.33 27 -3.66 27 -4 27 C-5.92051307 16.78895527 -3.70493924 9.38413675 0 0 Z " fill="#18A7AD" transform="translate(5,59)"/>
<path d="M0 0 C0.66 0 1.32 0 2 0 C5.5505033 9.87800739 7.82095486 18.3458303 7 29 C6.67 29 6.34 29 6 29 C5.83395264 28.08504761 5.83395264 28.08504761 5.66455078 27.15161133 C5.15675584 24.37089239 4.64095706 21.59171554 4.125 18.8125 C3.86396484 17.37293945 3.86396484 17.37293945 3.59765625 15.90429688 C3.42363281 14.97294922 3.24960938 14.04160156 3.0703125 13.08203125 C2.91320801 12.22843018 2.75610352 11.3748291 2.59423828 10.49536133 C2.05111827 7.93599156 2.05111827 7.93599156 0.93310547 5.36987305 C0 3 0 3 0 0 Z " fill="#0E4463" transform="translate(202,61)"/>
<path d="M0 0 C0.99 0 1.98 0 3 0 C3.37125 0.9075 3.7425 1.815 4.125 2.75 C6.37917288 6.65723299 7.95253844 8.01306432 12 10 C15.32958261 10.59225759 18.62290792 10.8665181 22 11 C19.62839852 13.37160148 18.99378878 13.31983352 15.75 13.375 C11.11193587 13.26332911 8.56881828 12.07084364 5 9 C2.34178606 6.1262552 0.57997799 3.91485143 0 0 Z " fill="#154B66" transform="translate(135,188)"/>
<path d="M0 0 C0.33 0 0.66 0 1 0 C1.02187378 1.03386841 1.02187378 1.03386841 1.04418945 2.08862305 C1.3109502 20.27713488 1.3109502 20.27713488 5 38 C4.34 38 3.68 38 3 38 C-0.37806401 29.92279183 -0.35426456 22.61353329 -0.1875 13.9375 C-0.17241956 12.58139514 -0.15873712 11.22527398 -0.14648438 9.86914062 C-0.11135836 6.57900398 -0.0621664 3.28971817 0 0 Z " fill="#15BEC2" transform="translate(0,176)"/>
<path d="M0 0 C0.66 0 1.32 0 2 0 C2.3403125 0.68964844 2.680625 1.37929687 3.03125 2.08984375 C6.57893035 8.96819208 10.60358002 14.47060869 16 20 C16.53496094 20.55042969 17.06992187 21.10085937 17.62109375 21.66796875 C18.73329146 22.79276927 19.86387201 23.89937601 21 25 C10.90103346 20.27377283 5.2836737 11.42988986 0 2 C0 1.34 0 0.68 0 0 Z " fill="#1F969A" transform="translate(4,215)"/>
<path d="M0 0 C1.02708241 3.08124723 0.80311522 4.56287568 0.29345703 7.67236328 C-0.38537867 13.05673898 -0.38914086 18.51789556 -0.5625 23.9375 C-0.60568359 25.19369141 -0.64886719 26.44988281 -0.69335938 27.74414062 C-0.79893619 30.82932968 -0.90104551 33.91459263 -1 37 C-1.33 37 -1.66 37 -2 37 C-2.21856444 32.85646222 -2.41509709 28.7126135 -2.59204102 24.56713867 C-2.65513103 23.15963425 -2.72403881 21.75237725 -2.79907227 20.34545898 C-2.90643757 18.31272398 -2.99223706 16.2799923 -3.07421875 14.24609375 C-3.13182373 13.02591553 -3.18942871 11.8057373 -3.2487793 10.54858398 C-2.9540186 6.34412206 -1.84426908 3.75809346 0 0 Z " fill="#0DB4BB" transform="translate(29,75)"/>
<path d="M0 0 C0.33 0.99 0.66 1.98 1 3 C-0.14453125 4.82421875 -0.14453125 4.82421875 -1.8125 6.6875 C-2.35519531 7.31011719 -2.89789063 7.93273437 -3.45703125 8.57421875 C-5 10 -5 10 -7 10 C-7.2475 10.639375 -7.495 11.27875 -7.75 11.9375 C-9 14 -9 14 -11.078125 14.62890625 C-12.02945313 14.81259766 -12.02945313 14.81259766 -13 15 C-8.70214922 9.96836982 -4.36574458 4.97281557 0 0 Z " fill="#08405B" transform="translate(184,172)"/>
<path d="M0 0 C0 0.66 0 1.32 0 2 C-5.66221678 5.61752739 -11.40232633 5.69040043 -18 6 C-18 5.34 -18 4.68 -18 4 C-17.18015625 3.87882813 -16.3603125 3.75765625 -15.515625 3.6328125 C-14.43796875 3.46523437 -13.3603125 3.29765625 -12.25 3.125 C-11.18265625 2.96257812 -10.1153125 2.80015625 -9.015625 2.6328125 C-5.85281055 1.9691131 -3.16013641 0 0 0 Z " fill="#2C9F9E" transform="translate(94,175)"/>
<path d="M0 0 C0.66 0.66 1.32 1.32 2 2 C-2.625 7.75 -2.625 7.75 -6 10 C-9.1875 10.125 -9.1875 10.125 -12 10 C-11.12408203 9.5978125 -11.12408203 9.5978125 -10.23046875 9.1875 C-7.97701996 7.98776545 -6.23697744 6.66982858 -4.3125 5 C-3.40951172 4.2265625 -3.40951172 4.2265625 -2.48828125 3.4375 C-0.88616884 2.04954056 -0.88616884 2.04954056 0 0 Z " fill="#149392" transform="translate(72,239)"/>
<path d="M0 0 C0 0.99 0 1.98 0 3 C-0.99 3.33 -1.98 3.66 -3 4 C-4.20882096 6.00016466 -4.20882096 6.00016466 -5 8 C-5.66 7.67 -6.32 7.34 -7 7 C-7 5.68 -7 4.36 -7 3 C-5.68 3 -4.36 3 -3 3 C-3 2.34 -3 1.68 -3 1 C-2.01 0.67 -1.02 0.34 0 0 Z " fill="#0BB3C2" transform="translate(42,57)"/>
<path d="M0 0 C0.66 0.66 1.32 1.32 2 2 C-0.31 4.31 -2.62 6.62 -5 9 C-5.99 8.67 -6.98 8.34 -8 8 C-5.36 5.36 -2.72 2.72 0 0 Z " fill="#0A3F5B" transform="translate(146,149)"/>
<path d="M0 0 C1.57554035 2.88628401 2.46276373 5.53342384 3.125 8.75 C3.29257813 9.54921875 3.46015625 10.3484375 3.6328125 11.171875 C3.81457031 12.07679688 3.81457031 12.07679688 4 13 C3.34 13 2.68 13 2 13 C-0.24828052 8.50343896 -0.16682272 4.92127034 0 0 Z " fill="#1C989F" transform="translate(1,201)"/>
<path d="M0 0 C0.66 0 1.32 0 2 0 C1.46884894 4.51478398 -0.36620292 7.34666857 -3 11 C-4 8 -4 8 -3.22265625 5.95703125 C-2.83980469 5.24933594 -2.45695313 4.54164062 -2.0625 3.8125 C-1.68222656 3.09707031 -1.30195313 2.38164063 -0.91015625 1.64453125 C-0.60980469 1.10183594 -0.30945313 0.55914062 0 0 Z " fill="#0B445D" transform="translate(131,118)"/>
<path d="M0 0 C3.26460973 1.80412643 4.88929795 2.83394693 7 6 C6.625 8.1875 6.625 8.1875 6 10 C5.566875 9.236875 5.13375 8.47375 4.6875 7.6875 C3.16247642 5.03713747 3.16247642 5.03713747 1.3125 3.3125 C0.879375 2.879375 0.44625 2.44625 0 2 C0 1.34 0 0.68 0 0 Z " fill="#178D93" transform="translate(90,152)"/>
<path d="M0 0 C3.81684226 1.55500981 6.19195732 4.03595495 9 7 C6 7 6 7 3.375 4.625 C1 2 1 2 0 0 Z " fill="#14A4A5" transform="translate(22,236)"/>
<path d="M0 0 C0.33 0.66 0.66 1.32 1 2 C1.66 2.33 2.32 2.66 3 3 C0.69 4.65 -1.62 6.3 -4 8 C-3.07377893 4.29511572 -2.32789515 2.83395931 0 0 Z " fill="#0DB8B8" transform="translate(72,236)"/>
<path d="M0 0 C3.11198065 1.49836105 6.0534615 3.19933758 9 5 C8.34 5.66 7.68 6.32 7 7 C5.82780457 6.21654285 4.66236332 5.42297164 3.5 4.625 C2.8503125 4.18414062 2.200625 3.74328125 1.53125 3.2890625 C1.0259375 2.86367188 0.520625 2.43828125 0 2 C0 1.34 0 0.68 0 0 Z " fill="#0A3850" transform="translate(107,55)"/>
<path d="M0 0 C0.66 0.33 1.32 0.66 2 1 C0.50902342 4.7952131 -1.75700849 6.61042731 -5 9 C-3.7508258 5.54074837 -2.32472205 2.85306797 0 0 Z " fill="#0AB5B8" transform="translate(16,45)"/>
<path d="M0 0 C0.66 0.33 1.32 0.66 2 1 C0.625 2.5 0.625 2.5 -1 4 C-1.66 4 -2.32 4 -3 4 C-3.33 4.99 -3.66 5.98 -4 7 C-4.99 6.67 -5.98 6.34 -7 6 C-4.69 4.02 -2.38 2.04 0 0 Z " fill="#154762" transform="translate(155,162)"/>
<path d="M0 0 C0 0.66 0 1.32 0 2 C-3.6441774 4.4294516 -5.71241272 4.16179575 -10 4 C-8.66666667 3.33333333 -7.33333333 2.66666667 -6 2 C-5.29875 1.62875 -4.5975 1.2575 -3.875 0.875 C-2 0 -2 0 0 0 Z " fill="#1B9493" transform="translate(94,175)"/>
<path d="M0 0 C1.98 0.99 1.98 0.99 4 2 C4 2.66 4 3.32 4 4 C5.45833358 5.62514468 5.45833358 5.62514468 7 7 C5.02 6.34 3.04 5.68 1 5 C0.67 3.35 0.34 1.7 0 0 Z " fill="#0AB2B4" transform="translate(36,138)"/>
<path d="M0 0 C2.875 0.25 2.875 0.25 6 1 C7.375 3.0625 7.375 3.0625 8 5 C2.25 3.375 2.25 3.375 0 0 Z " fill="#0A5D82" transform="translate(63,123)"/>
<path d="M0 0 C0.33 0.66 0.66 1.32 1 2 C1.66 2 2.32 2 3 2 C3.93065133 4.60582371 4.14917407 5.64198224 3.0625 8.25 C2.711875 8.8275 2.36125 9.405 2 10 C0.68373308 6.38026598 0 3.90432869 0 0 Z " fill="#0A4769" transform="translate(160,76)"/>
<path d="M0 0 C3.91402949 1.26941497 5.79072873 2.51167694 8 6 C4.74456771 5.65120368 3.98126893 4.97866739 1.75 2.4375 C1.1725 1.633125 0.595 0.82875 0 0 Z " fill="#094C65" transform="translate(115,61)"/>
</svg>
